<svg width="12" height="12" viewBox="0 0 12 12" fill="none" xmlns="http://www.w3.org/2000/svg">
<path d="M10.9781 2.43358L7.44261 5.96912L10.9781 9.50465C11.1657 9.69219 11.271 9.94654 11.271 10.2118C11.271 10.477 11.1657 10.7313 10.9781 10.9189C10.7906 11.1064 10.5363 11.2118 10.271 11.2118C10.0058 11.2118 9.75147 11.1064 9.56393 10.9189L6.0284 7.38333L2.49287 10.9189C2.30533 11.1064 2.05098 11.2118 1.78576 11.2118C1.52054 11.2118 1.26619 11.1064 1.07865 10.9189C0.891117 10.7313 0.785761 10.477 0.785761 10.2118C0.785761 9.94654 0.891117 9.69219 1.07865 9.50465L4.61419 5.96912L1.07865 2.43358C0.891117 2.24605 0.78576 1.99169 0.78576 1.72648C0.78576 1.46126 0.891117 1.20691 1.07865 1.01937C1.26619 0.831833 1.52054 0.726475 1.78576 0.726476C2.05098 0.726476 2.30533 0.831832 2.49287 1.01937L6.0284 4.5549L9.56393 1.01937C9.75147 0.831832 10.0058 0.726475 10.271 0.726475C10.5363 0.726475 10.7906 0.831833 10.9781 1.01937C11.1657 1.20691 11.271 1.46126 11.271 1.72647C11.271 1.99169 11.1657 2.24605 10.9781 2.43358Z" fill="black"/>
</svg>
