<svg width="24" height="20" viewBox="0 0 24 20" fill="none" xmlns="http://www.w3.org/2000/svg">
<path d="M12.459 0.660591C12.3259 0.556836 12.162 0.500488 11.9932 0.500488C11.8245 0.500488 11.6606 0.556836 11.5275 0.660591L0.75 9.06434L1.68225 10.2433L3 9.21584V18.5001C3.00079 18.8977 3.15908 19.2787 3.44022 19.5599C3.72135 19.841 4.10242 19.9993 4.5 20.0001H19.5C19.8976 19.9993 20.2787 19.841 20.5598 19.5599C20.8409 19.2787 20.9992 18.8977 21 18.5001V9.22259L22.3177 10.2501L23.25 9.07109L12.459 0.660591ZM13.5 18.5001H10.5V12.5001H13.5V18.5001ZM15 18.5001V12.5001C15 12.1023 14.842 11.7207 14.5607 11.4394C14.2794 11.1581 13.8978 11.0001 13.5 11.0001H10.5C10.1022 11.0001 9.72064 11.1581 9.43934 11.4394C9.15804 11.7207 9 12.1023 9 12.5001V18.5001H4.5V8.04659L12 2.20409L19.5 8.05409V18.5001H15Z" fill="#54AD36"/>
</svg>
