<svg width="14" height="15" viewBox="0 0 14 15" fill="none" xmlns="http://www.w3.org/2000/svg">
<path d="M13 8.93921H8V13.9392C8 14.2044 7.89464 14.4588 7.70711 14.6463C7.51957 14.8339 7.26522 14.9392 7 14.9392C6.73478 14.9392 6.48043 14.8339 6.29289 14.6463C6.10536 14.4588 6 14.2044 6 13.9392V8.93921H1C0.734784 8.93921 0.48043 8.83385 0.292893 8.64632C0.105357 8.45878 0 8.20443 0 7.93921C0 7.67399 0.105357 7.41964 0.292893 7.2321C0.48043 7.04457 0.734784 6.93921 1 6.93921H6V1.93921C6 1.67399 6.10536 1.41964 6.29289 1.2321C6.48043 1.04457 6.73478 0.939209 7 0.939209C7.26522 0.939209 7.51957 1.04457 7.70711 1.2321C7.89464 1.41964 8 1.67399 8 1.93921V6.93921H13C13.2652 6.93921 13.5196 7.04457 13.7071 7.2321C13.8946 7.41964 14 7.67399 14 7.93921C14 8.20443 13.8946 8.45878 13.7071 8.64632C13.5196 8.83385 13.2652 8.93921 13 8.93921Z" fill="black"/>
</svg>
