<svg width="43" height="42" viewBox="0 0 43 42" fill="none" xmlns="http://www.w3.org/2000/svg">
<path d="M6.95573 29.274C3.86573 26.182 2.31973 24.638 1.74573 22.632C1.16973 20.626 1.66173 18.496 2.64573 14.238L3.21173 11.782C4.03773 8.198 4.45173 6.406 5.67773 5.178C6.90373 3.95 8.69773 3.538 12.2817 2.712L14.7377 2.144C18.9977 1.162 21.1257 0.670002 23.1317 1.244C25.1377 1.82 26.6817 3.366 29.7717 6.456L33.4317 10.116C38.8137 15.496 41.4997 18.184 41.4997 21.524C41.4997 24.866 38.8117 27.554 33.4337 32.932C28.0537 38.312 25.3657 41 22.0237 41C18.6837 41 15.9937 38.312 10.6157 32.934L6.95573 29.274Z" stroke="#54AD36" stroke-width="1.5"/>
<path d="M28.2788 27.78C29.4488 26.606 29.6068 24.866 28.6308 23.888C27.6548 22.91 25.9128 23.07 24.7408 24.242C23.5708 25.414 21.8288 25.572 20.8528 24.596C19.8768 23.62 20.0348 21.878 21.2068 20.708M21.2068 20.708L20.4988 20M21.2068 20.708C21.8688 20.044 22.7128 19.708 23.4988 19.714M28.9848 28.486L28.2768 27.778C27.4768 28.58 26.4068 28.908 25.4988 28.72" stroke="#54AD36" stroke-width="1.5" stroke-linecap="round"/>
<path d="M17.5419 17.5864C19.104 16.0243 19.104 13.4917 17.5419 11.9296C15.9798 10.3675 13.4472 10.3675 11.8851 11.9296C10.323 13.4917 10.323 16.0243 11.8851 17.5864C13.4472 19.1485 15.9798 19.1485 17.5419 17.5864Z" stroke="#54AD36" stroke-width="1.5"/>
</svg>
