<svg width="16" height="19" viewBox="0 0 16 19" fill="none" xmlns="http://www.w3.org/2000/svg">
<path d="M5.825 18.6998C4.10833 18.2165 2.70833 17.2708 1.625 15.8628C0.541667 14.4548 0 12.8338 0 10.9998C0 10.0498 0.158333 9.14547 0.475 8.2868C0.791667 7.42814 1.24167 6.6408 1.825 5.9248C2.00833 5.7248 2.23333 5.62047 2.5 5.6118C2.76667 5.60314 3.00833 5.70747 3.225 5.9248C3.40833 6.10814 3.50433 6.33314 3.513 6.5998C3.52167 6.86647 3.434 7.11647 3.25 7.3498C2.85 7.86647 2.54167 8.43314 2.325 9.0498C2.10833 9.66647 2 10.3165 2 10.9998C2 12.3498 2.396 13.5541 3.188 14.6128C3.98 15.6715 5.00067 16.3921 6.25 16.7748C6.46667 16.8415 6.646 16.9665 6.788 17.1498C6.93 17.3331 7.00067 17.5331 7 17.7498C7 18.0831 6.88333 18.3458 6.65 18.5378C6.41667 18.7298 6.14167 18.7838 5.825 18.6998ZM10.175 18.6998C9.85833 18.7831 9.58333 18.7248 9.35 18.5248C9.11667 18.3248 9 18.0581 9 17.7248C9 17.5248 9.071 17.3331 9.213 17.1498C9.355 16.9665 9.534 16.8415 9.75 16.7748C11 16.3748 12.021 15.6498 12.813 14.5998C13.605 13.5498 14.0007 12.3498 14 10.9998C14 9.33314 13.4167 7.91647 12.25 6.7498C11.0833 5.58314 9.66667 4.9998 8 4.9998H7.925L8.325 5.39981C8.50833 5.58314 8.6 5.81647 8.6 6.0998C8.6 6.38314 8.50833 6.61647 8.325 6.7998C8.14167 6.98314 7.90833 7.0748 7.625 7.0748C7.34167 7.0748 7.10833 6.98314 6.925 6.7998L4.825 4.6998C4.725 4.5998 4.65433 4.49147 4.613 4.3748C4.57167 4.25814 4.55067 4.13314 4.55 3.9998C4.54933 3.86647 4.57033 3.74147 4.613 3.6248C4.65567 3.50814 4.72633 3.3998 4.825 3.2998L6.925 1.1998C7.10833 1.01647 7.34167 0.924805 7.625 0.924805C7.90833 0.924805 8.14167 1.01647 8.325 1.1998C8.50833 1.38314 8.6 1.61647 8.6 1.8998C8.6 2.18314 8.50833 2.41647 8.325 2.5998L7.925 2.9998H8C10.2333 2.9998 12.125 3.7748 13.675 5.3248C15.225 6.8748 16 8.76647 16 10.9998C16 12.8165 15.4583 14.4331 14.375 15.8498C13.2917 17.2665 11.8917 18.2165 10.175 18.6998Z" fill="#54AD36"/>
</svg>
